<svg xmlns="http://www.w3.org/2000/svg" width="800" height="800" xmlns:xlink="http://www.w3.org/1999/xlink"><rect x="0" y="0" width="800" height="800" fill-opacity="0" fill="#ffffff"></rect><rect x="563.4285" y="590.5038" width="8.1217" height="8.1217" fill-opacity="0" fill="#ffffff" stroke="#000000" visibility="hidden"></rect><rect x="571.5502" y="590.5038" width="8.1216" height="8.1216" fill-opacity="0" fill="#ffffff" stroke="#000000" visibility="hidden"></rect><rect x="563.4285" y="598.6255" width="16.2433" height="16.2433" fill-opacity="0" fill="#ffffff" stroke="#000000" visibility="hidden"></rect><rect x="579.6718" y="590.5038" width="24.365" height="24.365" fill-opacity="0" fill="#ffffff" stroke="#000000" visibility="hidden"></rect><rect x="563.4285" y="549.8956" width="40.6083" height="40.6083" fill-opacity="0" fill="#ffffff" stroke="#000000" visibility="hidden"></rect><rect x="498.5065" y="549.9468" width="64.922" height="64.922" fill-opacity="0" fill="#ffffff" stroke="#000000" visibility="hidden"></rect><rect x="498.5065" y="614.8688" width="105.5303" height="105.5303" fill-opacity="0" fill="#ffffff" stroke="#000000" visibility="hidden"></rect><rect x="604.0368" y="549.8956" width="170.6992" height="170.5035" fill-opacity="0" fill="#ffffff" stroke="#000000" visibility="hidden"></rect><rect x="498.5065" y="273.6661" width="276.2294" height="276.2294" fill-opacity="0" fill="#ffffff" stroke="#000000" visibility="hidden"></rect><rect x="51.6816" y="273.5741" width="446.8249" height="446.8249" fill-opacity="0" fill="#ffffff" stroke="#000000" visibility="hidden"></rect><rect x="51.6816" y="720.3991" width="276.2294" height="276.2294" fill-opacity="0" fill="#ffffff" stroke="#000000" visibility="hidden"></rect><line x1="51.6816" y1="720.3991" x2="327.911" y2="996.6285" fill-opacity="0" fill="#ffffff" stroke="#000000" visibility="hidden"></line><line x1="327.911" y1="720.3991" x2="51.6816" y2="996.6285" fill-opacity="0" fill="#ffffff" stroke="#000000" visibility="hidden"></line><line x1="189.7963" y1="858.5138" x2="189.7963" y2="720.399" fill-opacity="0" fill="#ffffff" stroke="#000000" visibility="hidden"></line><line x1="768.6134" y1="500.444" x2="768.6134" y2="224.2146" fill-opacity="0" fill="#ffffff" stroke="#000000" visibility="hidden"></line><path d="M432.4169,566.8068c-4.4855,0 -8.1216,-3.6362 -8.1216,-8.1217c0,-4.4855 3.6362,-8.1216 8.1216,-8.1216c8.9709,0 16.2433,7.2724 16.2433,16.2433c0,13.4564 -10.9086,24.365 -24.3649,24.365c-22.4273,0 -40.4888,-18.1809 -40.4888,-40.6083c0,-35.8177 29.036,-64.922 64.8537,-64.922c58.2828,0 105.5303,47.2475 105.5303,105.5303c0,94.2745 -76.2289,170.6992 -170.5035,170.6992c-152.5573,0 -275.5586,-123.6721 -275.5586,-276.2294c0,-246.7746 200.0503,-446.8249 446.8249,-446.8249c76.2786,0 138.1147,61.8361 138.1147,138.1147c0,76.2787 -61.8361,138.1147 -138.1147,138.1147c-25.7245,-1.4842 -51.5252,-0.9745 -77.171,1.5244c-40.2451,5.4976 -79.9037,20.0374 -115.9673,44.2342c-78.2861,52.5259 -99.0064,158.461 -46.4805,236.7471c32.4728,48.3983 98.0317,61.3086 146.4301,28.8358c29.7432,-19.9562 37.6392,-60.3022 17.683,-90.0455c-12.4956,-18.6238 -37.6236,-23.6582 -56.2474,-11.1627c-11.1743,7.4973 -14.155,22.6337 -6.6577,33.808c4.9982,7.4495 15.0891,9.4367 22.5386,4.4384c3.7247,-2.4991 4.7183,-7.5446 2.2192,-11.2693c-2.4991,-3.7247 -7.5446,-4.7183 -11.2693,-2.2192" id="Spirale 2 1 1" fill="#ffffff" stroke="#000000" stroke-width="18"></path><path d="M496.9988,523.0378c0.2421,0.3458 0.4813,0.6947 0.7176,1.0468v0v0c13.4276,20.013 17.4302,43.6479 13.0477,65.5266c-4.3377,21.6553 -16.922,41.747 -36.7422,55.0453v0c-29.2389,19.6178 -63.7059,25.5248 -95.6953,19.2253c-31.9894,-6.2995 -61.6434,-24.8336 -81.2612,-54.0725v0c-29.7977,-44.4113 -38.71,-96.7636 -28.9764,-145.3204c9.6282,-48.0307 37.5255,-92.4698 81.4683,-121.9532v0v0c38.9038,-26.1024 81.748,-41.8207 125.2472,-47.7628l0.4211,-0.0575l0.423,-0.0412c13.3883,-1.3046 26.8171,-2.0899 40.2561,-2.3553c13.2159,-0.261 26.4418,-0.0193 39.6489,0.7257c31.8317,-0.1608 60.5997,-13.1023 81.5051,-34.0077c21.0367,-21.0367 34.0092,-50.0352 34.0092,-82.1055c0,-32.0703 -12.9725,-61.0688 -34.0092,-82.1055c-21.0367,-21.0367 -50.0352,-34.0092 -82.1055,-34.0092c-117.3182,0 -223.4942,47.526 -300.3965,124.4283c-76.9023,76.9023 -124.4284,183.0784 -124.4284,300.3966c0,71.0461 28.9402,135.226 75.728,181.3604c45.7269,45.0883 108.4277,72.8691 177.8306,72.8691c40.8397,0 77.7469,-16.4346 104.5923,-43.0981c27.1448,-26.9608 43.9112,-64.2904 43.9112,-105.6011c0,-23.0723 -9.3254,-43.9248 -24.4655,-59.0648c-3.3139,-3.3139 -6.9015,-6.3492 -10.7261,-9.0692z" id="CompoundPath 1" fill="#000000" stroke="#000000" stroke-width="3" stroke-linejoin="bevel"></path><path d="M504.7491,166.8286c0,-23.2609 18.7991,-42.1175 41.989,-42.1175c23.1899,0 41.989,18.8567 41.989,42.1175c0,23.2609 -18.7991,42.1175 -41.989,42.1175c-23.1899,0 -41.989,-18.8567 -41.989,-42.1175z" fill="#ffffff" stroke="#ffffff" stroke-width="5"></path><path d="M509.3718,166.8286c0,-20.7 16.7295,-37.4807 37.3664,-37.4807c20.6369,0 37.3664,16.7807 37.3664,37.4807c0,20.7 -16.7295,37.4807 -37.3664,37.4807c-20.6369,0 -37.3664,-16.7807 -37.3664,-37.4807z" fill="#000000" stroke="#000000" stroke-width="3"></path><path d="M533.0394,166.8286c0,-7.5888 6.1332,-13.7407 13.6988,-13.7407c7.5656,0 13.6988,6.1519 13.6988,13.7407c0,7.5888 -6.1332,13.7407 -13.6988,13.7407c-7.5656,0 -13.6988,-6.1519 -13.6988,-13.7407z" fill="#ffffff" stroke="#ffffff"></path><path d="M533.7198,139.3287c0,-7.2119 5.8285,-13.0582 13.0184,-13.0582c7.1899,0 13.0184,5.8464 13.0184,13.0582c0,7.2119 -5.8285,13.0582 -13.0184,13.0582c-7.1899,0 -13.0184,-5.8464 -13.0184,-13.0582z" fill="#ffffff" stroke="#000000"></path><path d="M557.3874,153.0879c0,-7.2119 5.8285,-13.0582 13.0184,-13.0582c7.1899,0 13.0184,5.8464 13.0184,13.0582c0,7.2119 -5.8285,13.0582 -13.0184,13.0582c-7.1899,0 -13.0184,-5.8464 -13.0184,-13.0582z" fill="#ffffff" stroke="#000000"></path><path d="M557.3874,180.5693c0,-7.2119 5.8285,-13.0582 13.0184,-13.0582c7.1899,0 13.0184,5.8464 13.0184,13.0582c0,7.2119 -5.8285,13.0582 -13.0184,13.0582c-7.1899,0 -13.0184,-5.8464 -13.0184,-13.0582z" fill="#ffffff" stroke="#000000"></path><path d="M533.875,194.31c0,-7.2119 5.8285,-13.0582 13.0184,-13.0582c7.1899,0 13.0184,5.8464 13.0184,13.0582c0,7.2119 -5.8285,13.0582 -13.0184,13.0582c-7.1899,0 -13.0184,-5.8464 -13.0184,-13.0582z" fill="#ffffff" stroke="#000000"></path><path d="M510.6564,180.5693c0,-7.2119 5.8285,-13.0582 13.0184,-13.0582c7.1899,0 13.0184,5.8464 13.0184,13.0582c0,7.2119 -5.8285,13.0582 -13.0184,13.0582c-7.1899,0 -13.0184,-5.8464 -13.0184,-13.0582z" fill="#ffffff" stroke="#000000"></path><path d="M510.0522,153.0879c0,-7.2119 5.8285,-13.0582 13.0184,-13.0582c7.1899,0 13.0184,5.8464 13.0184,13.0582c0,7.2119 -5.8285,13.0582 -13.0184,13.0582c-7.1899,0 -13.0184,-5.8464 -13.0184,-13.0582z" fill="#ffffff" stroke="#000000"></path><path d="M259.0406,139.752c-6.9754,-9.0221 -5.3162,-21.9907 3.7059,-28.966c9.0221,-6.9754 21.9907,-5.3162 28.966,3.7059" id="Path 1" fill="#ffffff" stroke="#000000" stroke-width="8"></path><path d="M298.5599,109.5265c-5.9758,-9.7131 -2.946,-22.4315 6.7671,-28.4072c9.7131,-5.9758 22.4315,-2.946 28.4072,6.7671" fill="#ffffff" stroke="#000000" stroke-width="8"></path><path d="M340.6855,83.9944c-4.8893,-10.3029 -0.5008,-22.6186 9.8021,-27.5079c10.3029,-4.8893 22.6186,-0.5008 27.5079,9.802" fill="#ffffff" stroke="#000000" stroke-width="8"></path><path d="M480.329,36.4484c-1.4026,-11.3176 6.6351,-21.6293 17.9526,-23.0319c11.3176,-1.4026 21.6293,6.6351 23.0319,17.9526" fill="#ffffff" stroke="#000000" stroke-width="8"></path><path d="M385.4487,63.4111c-3.775,-10.7612 1.8883,-22.5452 12.6495,-26.3202c10.7612,-3.775 22.5452,1.8883 26.3202,12.6496" fill="#ffffff" stroke="#000000" stroke-width="8"></path><path d="M432.1125,46.9852c-2.509,-11.1247 4.4754,-22.177 15.6001,-24.686c11.1247,-2.509 22.177,4.4754 24.686,15.6001" fill="#ffffff" stroke="#000000" stroke-width="8"></path><path d="M529.4765,31.537c-0.0791,-11.4039 9.1015,-20.7126 20.5053,-20.7917c11.4039,-0.0791 20.7126,9.1015 20.7917,20.5053" fill="#ffffff" stroke="#000000" stroke-width="8"></path><path d="M578.5869,32.5285c3.3975,-10.8863 14.9768,-16.9572 25.8631,-13.5597c10.8863,3.3975 16.9572,14.9768 13.5597,25.8631" fill="#ffffff" stroke="#000000" stroke-width="8"></path><path d="M625.3359,48.4787c6.9146,-9.0688 19.8717,-10.815 28.9405,-3.9004c9.0688,6.9146 10.815,19.8717 3.9004,28.9405" fill="#ffffff" stroke="#000000" stroke-width="8"></path><path d="M663.7607,78.7734c9.4492,-6.385 22.2852,-3.901 28.6702,5.5481c6.385,9.4492 3.901,22.2853 -5.5481,28.6703" fill="#ffffff" stroke="#000000" stroke-width="8"></path><path d="M689.9828,120.7177c11.0295,-2.8989 22.3208,3.6922 25.2197,14.7217c2.8989,11.0296 -3.6922,22.3208 -14.7218,25.2197" fill="#ffffff" stroke="#000000" stroke-width="8"></path><path d="M700.999,168.6303c11.3643,0.9522 19.805,10.9368 18.8528,22.3011c-0.9522,11.3643 -10.9368,19.805 -22.3011,18.8527" fill="#ffffff" stroke="#000000" stroke-width="8"></path><path d="M695.7004,217.267c10.4274,4.6178 15.137,16.8143 10.5192,27.2417c-4.6178,10.4274 -16.8143,15.137 -27.2417,10.5192" fill="#ffffff" stroke="#000000" stroke-width="8"></path><path d="M674.633,261.0792c8.3036,7.817 8.6981,20.8852 0.8811,29.1888c-7.817,8.3036 -20.8852,8.6981 -29.1889,0.8811" fill="#ffffff" stroke="#000000" stroke-width="8"></path><path d="M639.9777,295.8047c5.3255,10.0844 1.4676,22.5765 -8.6168,27.9019c-10.0844,5.3255 -22.5765,1.4676 -27.9019,-8.6168" fill="#ffffff" stroke="#000000" stroke-width="8"></path><path d="M596.198,317.4838c1.5642,11.2964 -6.3252,21.7219 -17.6216,23.2862c-11.2964,1.5642 -21.7219,-6.3252 -23.2862,-17.6216" fill="#ffffff" stroke="#000000" stroke-width="8"></path><path d="M547.0023,323.0979c0.0369,11.4041 -9.178,20.6788 -20.5821,20.7157c-11.4041,0.0369 -20.6788,-9.1781 -20.7157,-20.5822" fill="#ffffff" stroke="#000000" stroke-width="8"></path><path d="M223.3523,173.4768c-7.9517,-8.1747 -7.771,-21.2476 0.4037,-29.1993c8.1747,-7.9517 21.2476,-7.771 29.1993,0.4037" fill="#ffffff" stroke="#000000" stroke-width="8"></path><path d="M191.3853,210.9833c-8.7551,-7.3077 -9.9285,-20.3292 -2.6208,-29.0843c7.3077,-8.7551 20.3292,-9.9285 29.0843,-2.6208" fill="#ffffff" stroke="#000000" stroke-width="8"></path><path d="M164.2537,252.2157c-9.5044,-6.3025 -12.1001,-19.1165 -5.7976,-28.6209c6.3025,-9.5044 19.1165,-12.1001 28.6209,-5.7976" id="Path 1" fill="#ffffff" stroke="#000000" stroke-width="8"></path><path d="M140.9349,295.5457c-10.1441,-5.2107 -14.1435,-17.6582 -8.9329,-27.8023c5.2107,-10.1441 17.6582,-14.1435 27.8023,-8.9329" fill="#ffffff" stroke="#000000" stroke-width="8"></path><path d="M122.8892,341.2213c-10.6346,-4.1183 -15.9171,-16.0778 -11.7988,-26.7124c4.1183,-10.6346 16.0778,-15.9171 26.7124,-11.7988" fill="#ffffff" stroke="#000000" stroke-width="8"></path><path d="M109.9146,388.7015c-11.0298,-2.8979 -17.622,-14.1885 -14.7241,-25.2184c2.8979,-11.0298 14.1886,-17.622 25.2184,-14.7241" fill="#ffffff" stroke="#000000" stroke-width="8"></path><path d="M102.1327,437.3978c-11.2846,-1.6472 -19.0972,-12.1304 -17.45,-23.415c1.6472,-11.2846 12.1304,-19.0972 23.415,-17.45" fill="#ffffff" stroke="#000000" stroke-width="8"></path><path d="M99.6798,486.6758c-11.3895,-0.577 -20.1549,-10.2778 -19.5779,-21.6673c0.577,-11.3895 10.2778,-20.1548 21.6673,-19.5778" fill="#ffffff" stroke="#000000" stroke-width="8"></path><path d="M104.4048,535.6827c-11.3376,1.2299 -21.5256,-6.9641 -22.7555,-18.3017c-1.2299,-11.3376 6.9641,-21.5256 18.3017,-22.7555" fill="#ffffff" stroke="#000000" stroke-width="8"></path><path d="M116.6909,583.3628c-10.9934,3.0333 -22.3642,-3.4196 -25.3975,-14.4129c-3.0333,-10.9933 3.4196,-22.3642 14.4129,-25.3975" fill="#ffffff" stroke="#000000" stroke-width="8"></path><path d="M137.7968,627.849c-10.2489,5.0014 -22.6118,0.7474 -27.6132,-9.5015c-5.0014,-10.2489 -0.7474,-22.6118 9.5015,-27.6131" fill="#ffffff" stroke="#000000" stroke-width="8"></path><path d="M166.2285,668.0321c-9.237,6.6882 -22.147,4.6221 -28.8352,-4.6149c-6.6882,-9.237 -4.6221,-22.1469 4.6149,-28.8352" fill="#ffffff" stroke="#000000" stroke-width="8"></path><path d="M200.6345,703.1529c-7.9473,8.179 -21.0201,8.3669 -29.1991,0.4196c-8.179,-7.9473 -8.3669,-21.0201 -0.4196,-29.1991" fill="#ffffff" stroke="#000000" stroke-width="8"></path><path d="M497.4936,323.3242c1.5294,11.3012 -6.3921,21.7023 -17.6933,23.2317c-11.3012,1.5294 -21.7023,-6.3922 -23.2317,-17.6933" fill="#ffffff" stroke="#000000" stroke-width="8"></path><path d="M448.4537,330.6645c3.8235,10.7441 -1.7868,22.5534 -12.5309,26.3769c-10.7441,3.8235 -22.5534,-1.7868 -26.3769,-12.5309" fill="#ffffff" stroke="#000000" stroke-width="8"></path><path d="M402.0605,347.6813c5.6707,9.8944 2.2468,22.5123 -7.6476,28.183c-9.8944,5.6707 -22.5123,2.2467 -28.183,-7.6476" fill="#ffffff" stroke="#000000" stroke-width="8"></path><path d="M359.3203,372.665c7.9491,8.1772 7.7642,21.2501 -0.413,29.1992c-8.1772,7.9491 -21.2501,7.7642 -29.1992,-0.413" fill="#ffffff" stroke="#000000" stroke-width="8"></path><path d="M324.3918,408.1588c10.0802,5.3334 13.9281,17.8285 8.5947,27.9087c-5.3334,10.0802 -17.8286,13.9281 -27.9087,8.5947" fill="#ffffff" stroke="#000000" stroke-width="8"></path><path d="M302.619,452.5761c11.2133,2.0779 18.6189,12.8525 16.541,24.0657c-2.0779,11.2133 -12.8525,18.6189 -24.0657,16.541" id="Path 1" fill="#ffffff" stroke="#000000" stroke-width="8"></path><path d="M294.4053,501.4586c11.3165,-1.4115 21.6345,6.6181 23.046,17.9346c1.4115,11.3165 -6.6181,21.6345 -17.9346,23.046" fill="#ffffff" stroke="#000000" stroke-width="8"></path><path d="M301.4293,550.9102c10.3703,-4.7448 22.6234,-0.1844 27.3681,10.1858c4.7447,10.3703 0.1844,22.6234 -10.1859,27.3681" fill="#ffffff" stroke="#000000" stroke-width="8"></path><path d="M240.5709,731.8426c-6.483,9.3822 -19.3443,11.7324 -28.7265,5.2494c-9.3822,-6.483 -11.7324,-19.3443 -5.2494,-28.7264" fill="#ffffff" stroke="#000000" stroke-width="8"></path><path d="M285.0207,752.9641c-4.7671,10.36 -17.03,14.894 -27.39,10.1269c-10.36,-4.7671 -14.894,-17.0299 -10.1269,-27.3899" fill="#ffffff" stroke="#000000" stroke-width="8"></path><path d="M332.5845,765.7005c-2.8691,11.0373 -14.1424,17.6591 -25.1798,14.79c-11.0373,-2.8691 -17.659,-14.1424 -14.79,-25.1798" fill="#ffffff" stroke="#000000" stroke-width="8"></path><path d="M381.6701,770.2297c-0.8972,11.3688 -10.8408,19.8577 -22.2096,18.9605c-11.3688,-0.8972 -19.8577,-10.8408 -18.9605,-22.2096" fill="#ffffff" stroke="#000000" stroke-width="8"></path><path d="M430.3849,764.091c1.6736,11.2807 -6.1145,21.7822 -17.3952,23.4558c-11.2807,1.6736 -21.7821,-6.1145 -23.4557,-17.3952" fill="#ffffff" stroke="#000000" stroke-width="8"></path><path d="M475.547,744.8464c4.6515,10.4124 -0.0186,22.6241 -10.431,27.2756c-10.4124,4.6515 -22.6241,-0.0186 -27.2756,-10.4309" fill="#ffffff" stroke="#000000" stroke-width="8"></path><path d="M513.9741,714.0783c7.3151,8.7489 6.1528,21.7714 -2.5961,29.0865c-8.7489,7.3151 -21.7713,6.1528 -29.0865,-2.5961" fill="#ffffff" stroke="#000000" stroke-width="8"></path><path d="M542.0858,673.8799c9.409,6.444 11.8126,19.2954 5.3686,28.7044c-6.444,9.409 -19.2954,11.8126 -28.7044,5.3686" fill="#ffffff" stroke="#000000" stroke-width="8"></path><path d="M558.9068,627.8985c10.8124,3.6259 16.6381,15.3305 13.0122,26.1428c-3.6259,10.8124 -15.3304,16.6381 -26.1428,13.0122" fill="#ffffff" stroke="#000000" stroke-width="8"></path><path d="M561.4399,578.2219c11.3984,0.3633 20.344,9.8981 19.9807,21.2964c-0.3633,11.3984 -9.898,20.344 -21.2964,19.9807" fill="#ffffff" stroke="#000000" stroke-width="8"></path><path d="M545.021,532.2026c10.6403,-4.1034 22.5925,1.1958 26.6959,11.8361c4.1034,10.6403 -1.1957,22.5925 -11.836,26.6959" fill="#ffffff" stroke="#000000" stroke-width="8"></path><path d="M511.5251,496.3607c7.95,-8.1763 21.0229,-8.3598 29.1993,-0.4099c8.1763,7.95 8.3599,21.0229 0.4099,29.1992" fill="#ffffff" stroke="#000000" stroke-width="8"></path><path d="M465.5934,479.0882c3.6211,-10.814 15.3231,-16.6449 26.137,-13.0238c10.814,3.6211 16.6449,15.323 13.0238,26.137" fill="#ffffff" stroke="#000000" stroke-width="8"></path><path d="M417.0493,485.0134c-1.9285,-11.2399 5.6198,-21.915 16.8597,-23.8435c11.2399,-1.9285 21.915,5.6198 23.8435,16.8597" fill="#ffffff" stroke="#000000" stroke-width="8"></path><path d="M383.1768,519.7441c-8.5793,-7.5133 -9.4436,-20.5589 -1.9303,-29.1383c7.5133,-8.5793 20.5589,-9.4436 29.1383,-1.9303" id="Path 1" fill="#ffffff" stroke="#000000" stroke-width="8"></path><path d="M379.852,567.8943c-11.402,-0.2208 -20.4662,-9.6429 -20.2454,-21.0449c0.2208,-11.402 9.6429,-20.4662 21.0449,-20.2454" fill="#ffffff" stroke="#000000" stroke-width="8"></path><path d="M417.0705,597.3502c-6.4235,9.423 -19.2696,11.8546 -28.6926,5.4311c-9.423,-6.4235 -11.8546,-19.2696 -5.4311,-28.6926" fill="#ffffff" stroke="#000000" stroke-width="8"></path><path d="M454.4537,570.7034c7.3773,8.6966 6.3078,21.727 -2.3887,29.1043c-8.6966,7.3773 -21.727,6.3078 -29.1043,-2.3887" fill="#ffffff" stroke="#000000" stroke-width="8"></path><path d="M418.3753,545.331c5.6622,-9.8992 18.2772,-13.3339 28.1764,-7.6717c9.8992,5.6622 13.3339,18.2772 7.6717,28.1764" fill="#ffffff" stroke="#000000" stroke-width="8"></path><path d="M322.644,596.5668c7.6405,-8.4662 20.6976,-9.1356 29.1638,-1.495c8.4662,7.6406 9.1356,20.6976 1.495,29.1639" fill="#ffffff" stroke="#000000" stroke-width="8"></path><path d="M361.7136,629.1907c2.4927,-11.1284 13.5347,-18.129 24.6631,-15.6363c11.1284,2.4927 18.129,13.5347 15.6363,24.6631" fill="#ffffff" stroke="#000000" stroke-width="8"></path><path d="M411.8945,639.1282c-3.4367,-10.874 2.5924,-22.4751 13.4665,-25.9117c10.874,-3.4367 22.4751,2.5925 25.9118,13.4665" fill="#ffffff" stroke="#000000" stroke-width="8"></path><path d="M462.4917,623.6292c-9.5501,-6.233 -12.2391,-19.0277 -6.0061,-28.5778c6.233,-9.5501 19.0278,-12.2391 28.5778,-6.0061" fill="#ffffff" stroke="#000000" stroke-width="8"></path><path d="M489.3188,578.1627c-11.0646,2.7621 -22.2734,-3.9684 -25.0354,-15.033c-2.7621,-11.0646 3.9684,-22.2734 15.033,-25.0355" fill="#ffffff" stroke="#000000" stroke-width="8"></path><path d="M478.2086,523.6424c-3.3365,10.9052 -14.8815,17.0409 -25.7867,13.7044c-10.9052,-3.3365 -17.0408,-14.8816 -13.7044,-25.7867" id="Path 1" fill="#ffffff" stroke="#000000" stroke-width="8"></path></svg>