<svg xmlns="http://www.w3.org/2000/svg" xmlns:xlink="http://www.w3.org/1999/xlink" version="1.1" width="256" height="256" viewBox="0 0 256 256" xml:space="preserve">
<g style="stroke: none; stroke-width: 0; stroke-dasharray: none; stroke-linecap: butt; stroke-linejoin: miter; stroke-miterlimit: 10; fill: none; fill-rule: nonzero; opacity: 1;" transform="translate(1.4065934065934016 1.4065934065934016) scale(2.81 2.81)">
	<path d="M 45 90 L 45 90 C 20.147 90 0 69.853 0 45 v 0 C 0 20.147 20.147 0 45 0 h 0 c 24.853 0 45 20.147 45 45 v 0 C 90 69.853 69.853 90 45 90 z M 29.977 25.793 C 25.589 22.499 18.48 19.95 18.48 28.06 C 18.48 29.68 19.408 41.667 19.953 43.613 C 21.846 50.379 28.745 52.104 34.882 51.06 C 24.155 52.885 21.427 58.933 27.32 64.98 C 38.513 76.465 43.407 62.098 44.661 58.417 C 44.891 57.742 44.998 57.427 45 57.695 C 45.002 57.426 45.109 57.742 45.339 58.417 C 46.593 62.098 51.488 76.465 62.68 64.98 C 68.574 58.933 65.845 52.886 55.118 51.06 C 61.255 52.104 68.154 50.379 70.047 43.613 C 70.591 41.667 71.52 29.68 71.52 28.06 C 71.52 19.95 64.411 22.499 60.023 25.793 C 53.942 30.358 47.402 39.615 45 44.582 C 42.599 39.615 36.058 30.358 29.977 25.793 Z" style="stroke: none; stroke-width: 1; stroke-dasharray: none; stroke-linecap: butt; stroke-linejoin: miter; stroke-miterlimit: 10; fill: rgb(0,0,0); fill-rule: nonzero; opacity: 1;" transform=" matrix(1 0 0 1 0 0) " stroke-linecap="round"/>
</g>
</svg>